<?xml version="1.0" standalone="no"?>
<!DOCTYPE svg PUBLIC "-//W3C//DTD SVG 20010904//EN"
 "http://www.w3.org/TR/2001/REC-SVG-20010904/DTD/svg10.dtd">
<svg version="1.0" xmlns="http://www.w3.org/2000/svg"
 width="512.000000pt" height="512.000000pt" viewBox="0 0 512.000000 512.000000"
 preserveAspectRatio="xMidYMid meet">
<metadata>
Created by potrace 1.11, written by Peter Selinger 2001-2013
</metadata>
<g transform="translate(0.000000,512.000000) scale(0.100000,-0.100000)"
fill="#000000" stroke="none">
<path d="M2519 5116 c-2 -2 -42 -7 -89 -10 -86 -7 -119 -10 -200 -21 -96 -13
-117 -16 -170 -25 -30 -5 -68 -12 -85 -14 -79 -13 -111 -19 -260 -52 -453
-100 -727 -254 -936 -529 -151 -199 -250 -417 -313 -695 -19 -81 -45 -158 -81
-235 -108 -234 -100 -320 44 -459 39 -39 71 -78 71 -88 0 -35 -141 -296 -243
-448 -28 -41 -88 -125 -133 -186 -120 -159 -137 -202 -113 -289 14 -52 94
-129 179 -174 150 -78 155 -93 80 -242 -49 -100 -54 -122 -34 -179 3 -8 27
-33 55 -55 38 -31 48 -45 43 -60 -34 -114 -12 -174 81 -220 89 -44 103 -78 78
-185 -39 -166 7 -344 115 -441 59 -53 127 -79 206 -79 82 0 390 83 675 181
l113 39 28 -20 c109 -77 238 -297 299 -510 14 -48 31 -83 47 -97 l25 -23 1092
4 c601 3 1102 7 1113 11 20 6 35 27 48 68 7 23 -39 126 -91 203 -172 255 -297
851 -248 1179 45 297 127 485 331 756 170 225 248 360 306 532 40 120 41 162
4 193 -15 13 -39 24 -54 24 -50 0 -69 -24 -102 -133 -43 -138 -111 -267 -225
-422 -268 -367 -350 -527 -405 -790 -25 -122 -31 -170 -35 -305 -2 -104 0
-148 20 -315 31 -259 143 -621 238 -772 15 -24 27 -46 27 -50 0 -5 -433 -9
-963 -11 l-963 -2 -23 71 c-44 137 -162 346 -249 441 -14 15 -23 30 -21 33 3
3 75 29 160 59 85 29 181 66 214 80 210 94 347 239 359 381 6 81 -21 125 -79
125 -50 0 -82 -34 -90 -95 -17 -138 -130 -215 -505 -346 -655 -228 -985 -326
-1062 -316 -112 15 -173 162 -136 322 18 73 15 158 -5 207 -20 48 -79 112
-122 132 -40 20 -42 28 -15 66 50 70 29 111 -103 201 -5 4 8 41 29 84 32 66
39 89 41 150 4 123 -39 182 -192 265 -69 37 -125 77 -125 90 0 5 41 64 92 132
216 289 408 632 408 727 0 71 -39 141 -120 219 -54 53 -70 74 -70 96 0 16 21
76 46 135 58 133 78 188 109 315 54 214 112 361 197 495 186 296 396 447 765
550 91 25 154 39 338 77 10 2 37 6 60 9 22 3 47 8 55 10 20 5 65 12 206 29 65
9 139 18 164 22 25 3 137 8 250 9 113 2 211 3 218 4 7 1 21 15 31 31 24 40 15
86 -22 114 -24 18 -44 20 -200 23 -95 2 -175 2 -178 -1z"/>
<path d="M3852 5097 c-49 -33 -61 -58 -87 -178 -13 -61 -25 -112 -27 -113 -1
-2 -24 -12 -49 -24 l-46 -20 -98 64 c-53 35 -105 64 -114 65 -9 0 -24 2 -34 4
-36 7 -83 -16 -132 -64 l-50 -49 -150 -4 c-122 -2 -156 -6 -177 -20 -44 -29
-77 -81 -89 -139 -17 -87 -19 -99 -33 -166 -8 -35 -15 -65 -17 -66 -2 -2 -35
-15 -73 -31 l-70 -27 -110 74 c-132 88 -140 93 -187 96 -61 4 -107 -24 -210
-128 -85 -86 -99 -105 -106 -143 -7 -41 -7 -49 -4 -82 0 -8 39 -71 85 -141
l83 -127 -30 -71 c-35 -86 -27 -75 -58 -80 -124 -23 -248 -51 -269 -62 -29
-15 -62 -50 -80 -84 -8 -16 -13 -73 -13 -162 -1 -223 22 -251 243 -295 74 -14
139 -30 144 -35 5 -5 21 -39 35 -76 l26 -67 -82 -123 c-46 -68 -84 -134 -84
-146 -6 -97 6 -119 129 -239 94 -93 120 -108 183 -108 48 0 73 13 205 101
l101 68 75 -31 c41 -17 75 -36 75 -42 0 -6 8 -48 17 -94 10 -45 19 -95 22
-110 13 -76 45 -126 98 -153 33 -18 56 -20 179 -20 229 2 246 18 296 280 11
57 22 105 24 107 2 2 35 17 74 33 l70 29 128 -84 c119 -79 130 -84 180 -84 64
0 92 17 199 125 145 147 148 186 26 370 l-82 123 28 71 c15 39 35 73 43 76 9
2 71 16 138 30 135 27 171 41 202 81 l21 27 77 -52 c42 -28 83 -51 92 -52 9 0
24 -2 33 -4 41 -8 91 21 165 94 88 88 100 104 106 149 8 50 -7 89 -72 185
l-59 89 21 49 c22 52 26 54 97 64 24 4 47 8 50 10 3 2 23 6 45 9 55 9 115 53
131 96 7 19 13 84 13 145 1 176 -25 207 -205 243 -59 12 -108 23 -109 24 -1 2
-12 24 -23 50 l-20 47 31 47 c18 26 40 59 49 73 81 121 75 173 -35 284 -88 90
-111 105 -165 111 -48 4 -79 -9 -196 -87 l-68 -45 -47 20 c-25 11 -47 21 -48
22 -2 1 -12 48 -23 104 -23 120 -38 152 -82 184 -30 21 -44 23 -163 25 -119 1
-133 0 -163 -20z m249 -269 c14 -70 31 -131 41 -144 10 -12 42 -30 71 -40 28
-9 77 -29 107 -44 68 -34 79 -31 196 47 49 33 94 62 100 66 15 9 106 -81 97
-96 -3 -7 -33 -51 -65 -99 -82 -122 -82 -124 -49 -194 15 -33 35 -82 45 -110
9 -29 26 -60 36 -69 15 -14 212 -62 263 -65 4 0 7 -31 7 -69 l0 -69 -92 -17
c-51 -10 -106 -19 -123 -22 -43 -7 -72 -38 -91 -97 -9 -28 -27 -71 -40 -95
-38 -70 -33 -94 46 -210 l70 -104 -32 -37 c-58 -65 -56 -65 -154 2 -49 33 -90
62 -92 63 -1 1 -4 35 -7 75 -3 57 -10 81 -29 108 l-24 35 38 48 c74 94 110
198 112 318 0 79 -6 115 -32 184 -74 193 -263 326 -467 327 -32 0 -69 -2 -83
-4 -14 -3 -55 -9 -91 -14 -77 -11 -81 -13 -218 -104 l-104 -70 -66 28 c-81 34
-86 37 -88 66 -2 13 -12 67 -23 122 -25 123 -25 126 9 153 l27 21 113 -73 c71
-48 118 -72 129 -68 9 3 53 20 98 39 45 19 88 34 97 34 33 0 63 55 81 148 25
128 24 126 25 140 1 8 22 12 70 12 l69 0 23 -122z m-922 -255 c5 -21 20 -90
32 -153 25 -134 38 -163 76 -178 111 -41 154 -58 194 -79 34 -17 55 -22 75
-17 16 4 88 47 159 95 l130 89 72 -72 71 -71 -88 -133 c-49 -73 -92 -144 -96
-158 -4 -18 5 -47 30 -102 20 -42 42 -96 48 -120 23 -83 34 -90 218 -127 l165
-32 1 -102 0 -101 -30 -6 c-191 -36 -298 -62 -314 -77 -11 -9 -27 -41 -36 -71
-10 -29 -33 -86 -52 -126 -19 -41 -34 -82 -34 -93 0 -10 42 -81 93 -158 l93
-139 -68 -71 c-38 -39 -71 -71 -73 -71 -2 0 -65 41 -141 91 -90 61 -145 92
-163 91 -14 0 -64 -19 -111 -40 -47 -22 -99 -43 -117 -47 -33 -7 -74 -42 -79
-66 -1 -8 -10 -50 -18 -94 -9 -44 -19 -93 -22 -110 -3 -16 -8 -46 -12 -65 l-8
-35 -101 -3 -101 -3 -6 28 c-4 15 -8 39 -11 53 -29 155 -49 239 -60 257 -8 12
-38 29 -67 38 -29 10 -87 33 -128 53 -41 19 -87 35 -103 34 -15 -1 -86 -42
-163 -93 l-136 -91 -69 68 c-42 42 -67 74 -64 83 3 7 41 67 85 132 44 65 84
129 90 143 7 19 2 38 -24 93 -18 37 -43 99 -55 136 -23 69 -45 93 -92 102 -13
3 -69 14 -124 24 -55 11 -113 22 -129 25 -16 3 -31 7 -34 10 -3 3 -5 49 -5
103 l0 97 114 23 c63 13 129 26 148 29 81 14 90 23 126 123 15 41 38 93 51
117 40 71 34 91 -66 241 -49 73 -90 136 -90 139 0 3 32 37 70 75 l70 69 125
-85 c169 -117 165 -116 272 -67 48 22 107 46 131 53 56 16 76 43 92 121 6 35
14 72 16 83 5 23 34 169 34 171 0 1 45 2 99 3 l100 2 10 -38z m978 -250 c201
-91 267 -337 137 -514 -48 -66 -105 -103 -146 -96 -62 11 -92 18 -98 22 -4 2
-19 35 -35 74 l-28 70 76 113 c88 131 100 159 93 210 -7 46 -20 74 -54 111
-25 26 -25 27 -4 27 12 0 38 -8 59 -17z"/>
<path d="M2910 3986 c-97 -28 -166 -66 -239 -133 -309 -279 -238 -788 137
-973 383 -190 842 81 858 505 9 240 -113 451 -324 560 -126 65 -294 81 -432
41z m269 -160 c63 -14 151 -68 200 -122 81 -88 113 -164 116 -277 11 -316
-315 -532 -601 -398 -222 104 -309 363 -197 585 51 100 172 192 283 216 44 9
152 7 199 -4z"/>
<path d="M3016 3474 c-54 -55 -18 -144 58 -144 47 0 91 50 82 94 -9 42 -35 66
-78 71 -28 4 -41 0 -62 -21z"/>
<path d="M1740 4651 c-393 -93 -598 -230 -774 -517 -63 -103 -137 -294 -161
-412 -2 -9 -6 -29 -10 -44 -6 -25 -4 -27 37 -38 23 -6 50 -13 58 -15 52 -14
70 -13 70 3 0 45 67 248 110 337 88 177 200 306 333 383 88 51 291 123 392
139 17 3 44 11 62 20 64 30 62 122 -3 149 -18 8 -35 14 -36 13 -2 0 -37 -9
-78 -18z"/>
<path d="M719 3397 c-59 -45 -39 -136 32 -151 56 -11 98 26 99 86 0 28 -6 41
-26 57 -29 23 -80 27 -105 8z"/>
</g>
</svg>
